<?xml version="1.0" encoding="UTF-8"?>
<svg version="1.1" xmlns="http://www.w3.org/2000/svg" width="497" height="697">
<path d="M0 0 C164.01 0 328.02 0 497 0 C497 230.01 497 460.02 497 697 C332.99 697 168.98 697 0 697 C0 466.99 0 236.98 0 0 Z " fill="#FEFEFE" transform="translate(0,0)"/>
<path d="M0 0 C0.66644531 0.44730469 1.33289063 0.89460937 2.01953125 1.35546875 C17.45442569 11.47989601 30.33700173 14.27664098 48.5078125 14.4140625 C50.08536759 14.43280716 51.662913 14.45238293 53.240448 14.4727478 C57.36008964 14.52372718 61.47976366 14.56353413 65.59954834 14.60089111 C69.81644475 14.64114715 74.03321044 14.6921401 78.25 14.7421875 C86.49991017 14.838541 94.7498859 14.9230734 103 15 C103.15677671 48.86598104 103.15677671 48.86598104 102.25 63.3125 C102.20709839 64.02192749 102.16419678 64.73135498 102.11999512 65.46228027 C100.56343209 90.85275826 97.01039746 115.96323047 93.01855469 141.07128906 C92.89238266 141.8667363 92.76621063 142.66218353 92.63621521 143.48173523 C92.40159574 144.95555869 92.16501744 146.4290725 91.92591858 147.9021759 C91.34929744 151.51273631 90.85836163 155.11868988 90.46244812 158.75389099 C90.3313617 159.95187647 90.3313617 159.95187647 90.19762707 161.17406368 C90.13241014 161.77662267 90.0671932 162.37918165 90 163 C100.93702079 162.52057503 111.87370502 162.03411867 122.81002808 161.53901863 C127.88981113 161.30926518 132.96967415 161.08181173 138.04980469 160.85986328 C142.96490495 160.64503597 147.87968334 160.42384244 152.79431152 160.19848251 C154.65659741 160.11416055 156.51898358 160.03202023 158.38146973 159.9522438 C168.48919003 159.51777203 178.45064354 158.8545127 188.47091675 157.429245 C194.68091339 156.67391853 200.87257977 156.67116661 207.125 156.6875 C208.36636719 156.67138672 209.60773438 156.65527344 210.88671875 156.63867188 C224.09644923 156.63178463 236.31940092 158.87055509 247.75 165.625 C252.8829919 171.04315811 255.31170532 176.92173886 255.6875 184.375 C255.10052429 197.52016648 246.74464524 206.77254978 237.50390625 215.3046875 C210.23851935 238.72131994 172.93283599 246.99677376 138.3125 252.5 C137.65289276 252.6060556 136.99328552 252.71211121 136.31369019 252.82138062 C122.92395491 254.96773466 109.4886442 256.60438329 96 258 C96.11593506 258.54825439 96.23187012 259.09650879 96.35131836 259.66137695 C96.8864865 262.21044619 97.41200999 264.76141875 97.9375 267.3125 C98.11990234 268.17423828 98.30230469 269.03597656 98.49023438 269.92382812 C104.56454447 299.6327266 103.46475105 335.80201402 92 364 C91.75991211 364.60763184 91.51982422 365.21526367 91.27246094 365.84130859 C89.01773113 371.52810758 86.67725854 377.02237261 83.3984375 382.20727539 C82.72433838 383.27613731 82.72433838 383.27613731 82.03662109 384.36659241 C81.69453613 384.90561691 81.35245117 385.44464142 81 386 C81.76928329 385.99333817 82.53856659 385.98667633 83.3311615 385.97981262 C90.61283021 385.91947704 97.89437617 385.8739123 105.17623043 385.84456348 C108.91910991 385.82896726 112.66178127 385.80784102 116.40454102 385.77368164 C120.02259402 385.74087046 123.64044797 385.72310164 127.25863838 385.71536827 C128.63281954 385.70986349 130.00699091 385.69911487 131.38108635 385.68280983 C148.83642369 385.48409112 148.83642369 385.48409112 155.8125 391.375 C163.65108303 402.27849612 163.18824701 417.77191172 163.25 430.5625 C163.270625 431.63435547 163.29125 432.70621094 163.3125 433.81054688 C163.35217951 441.92004749 163.01961673 448.79920627 157.265625 454.8984375 C141.19253331 465.24212569 117.5563211 465.43683628 99.12304688 466.88037109 C96.00323062 467.12474694 92.88442735 467.37975528 89.765625 467.63671875 C83.84574711 468.11948123 77.92380781 468.56836644 72 469 C71.23490112 469.05728271 70.46980225 469.11456543 69.68151855 469.17358398 C55.87963435 470.18127323 42.06132799 470.21982375 28.22802734 470.24023438 C24.29893321 470.24987987 20.37037716 470.28097761 16.44140625 470.3125 C3.15169699 470.36862735 -9.98149805 469.96294757 -23.203125 468.671875 C-24.41256775 468.55515442 -25.6220105 468.43843384 -26.86810303 468.31817627 C-49.00981355 465.92584642 -49.00981355 465.92584642 -54 460 C-58.02595533 453.16656587 -58.59143355 446.98246351 -58.53125 439.17578125 C-58.5350769 438.07074753 -58.53890381 436.96571381 -58.54284668 435.82719421 C-58.54555471 433.50514813 -58.53827177 431.18307096 -58.52148438 428.86108398 C-58.49999878 425.31229784 -58.52135696 421.765522 -58.546875 418.21679688 C-58.54423273 415.95312055 -58.53910984 413.68944547 -58.53125 411.42578125 C-58.53934692 410.36941971 -58.54744385 409.31305817 -58.55578613 408.22468567 C-58.4789069 402.17882804 -58.04629251 398.59894071 -54 394 C-52.03515625 392.57421875 -52.03515625 392.57421875 -50.0625 391.6875 C-49.41410156 391.38199219 -48.76570312 391.07648438 -48.09765625 390.76171875 C-44.06677938 389.29799251 -40.20306649 388.87544427 -35.93432617 388.88647461 C-34.95368698 388.88655014 -33.97304779 388.88662567 -32.96269226 388.88670349 C-31.39367912 388.89444542 -31.39367912 388.89444542 -29.79296875 388.90234375 C-28.71243729 388.9037587 -27.63190582 388.90517365 -26.51863098 388.90663147 C-23.07489224 388.9122192 -19.63121902 388.9247695 -16.1875 388.9375 C-13.84961032 388.94251658 -11.51171961 388.94707921 -9.17382812 388.95117188 C-3.44919647 388.96218462 2.27539708 388.97891059 8 389 C7.59370361 388.1140918 7.18740723 387.22818359 6.76879883 386.31542969 C3.50917733 379.00345144 0.99263774 372.19216518 -0.3125 364.25 C-0.61896423 362.52566183 -0.92745401 360.80168204 -1.23828125 359.078125 C-1.4245105 357.97065918 -1.4245105 357.97065918 -1.61450195 356.84082031 C-1.93620489 354.91560058 -1.93620489 354.91560058 -3 353 C-5.75113546 337.90243178 -6.30271846 322.55351958 -6.3125 307.25 C-6.31581329 306.500672 -6.31912659 305.75134399 -6.32254028 304.97930908 C-6.35937547 290.90672468 -5.11944847 277.53920189 -1 264 C-2.07699158 264.06892456 -3.15398315 264.13784912 -4.26361084 264.2088623 C-16.81785538 264.96564841 -29.34697225 265.18509121 -41.92194366 265.26036072 C-45.48134956 265.28179637 -49.04067875 265.30877241 -52.60003662 265.33703613 C-61.42854828 265.40606588 -70.25711641 265.46607534 -79.08569336 265.52606201 C-86.58271487 265.57732472 -94.07969295 265.63222407 -101.57665253 265.69187927 C-105.05664207 265.71811681 -108.53663677 265.73912254 -112.0166626 265.7598877 C-122.04155965 265.83166064 -132.01283999 265.971559 -142.00906372 266.76786804 C-162.81199528 268.38242107 -189.04320067 268.49367748 -206.125 254.68359375 C-217.95423079 244.06193027 -223.15152407 229.40796073 -224.14208984 213.75463867 C-224.63554626 201.92796629 -224.56831454 191.50183805 -217 181.75 C-204.04873004 168.33127443 -184.37072929 165.42870931 -166.546875 164.8125 C-157.881668 164.65917254 -149.26747581 165.01277005 -140.62183762 165.58774662 C-119.54349867 166.98661383 -98.55195961 167.28010541 -77.43255615 167.19561768 C-74.00115023 167.1847264 -70.56978311 167.18519214 -67.13836288 167.18563652 C-48.40281303 167.1849825 -29.71436477 166.99060032 -11 166 C-9.28726133 162.0175705 -7.62208414 158.02035182 -6 154 C-5.64292969 153.12214844 -5.28585938 152.24429688 -4.91796875 151.33984375 C-2.42764033 144.60305889 -1.07015879 137.73738579 0.1875 130.6875 C0.35451416 129.76348389 0.52152832 128.83946777 0.69360352 127.88745117 C2.84360613 115.13681806 3.15645513 102.28296161 3.16796875 89.37890625 C3.17120163 88.02294382 3.17456701 86.6669817 3.17805481 85.3110199 C3.18398117 82.48834428 3.18590169 79.66569896 3.18530273 76.84301758 C3.18522188 74.00538707 3.19211107 71.1679194 3.20581055 68.33032227 C3.29843333 48.84682873 3.35603579 29.25627855 0 10 C-0.06305204 8.20932194 -0.08671114 6.41662421 -0.0625 4.625 C-0.05347656 3.75101563 -0.04445312 2.87703125 -0.03515625 1.9765625 C-0.01775391 0.99816406 -0.01775391 0.99816406 0 0 Z " fill="#9973FE" transform="translate(241,161)"/>
<path d="M0 0 C15.89799638 12.2618937 21.60117336 31.88896268 24.39257812 50.97631836 C25.67674229 61.55981039 25.57653088 72.28383578 25.65234375 82.9296875 C25.66206207 83.73403229 25.6717804 84.53837708 25.68179321 85.36709595 C25.83062782 99.91822754 24.35368248 114.01229526 19.83984375 127.9296875 C19.59411621 128.69410156 19.34838867 129.45851563 19.09521484 130.24609375 C14.16443056 144.825586 7.51739502 160.10711234 -2.66015625 171.8046875 C-3.17320312 172.43761719 -3.68625 173.07054687 -4.21484375 173.72265625 C-9.49985856 179.67815802 -16.71640967 183.12560131 -23.66015625 186.8046875 C-24.29332764 187.17384277 -24.92649902 187.54299805 -25.57885742 187.92333984 C-32.48764234 190.84893674 -42.6352447 186.74614642 -49.53515625 184.9921875 C-67.81912324 180.49158088 -85.97977766 177.14918846 -104.66015625 174.8046875 C-106.69144023 174.54453599 -108.72268966 174.2841146 -110.75390625 174.0234375 C-115.81778689 173.37734371 -120.88393922 172.75190982 -125.95166016 172.13671875 C-128.3076578 171.84789986 -130.66167785 171.54713442 -133.015625 171.2421875 C-137.55586312 170.67091369 -142.10301838 170.21814086 -146.66015625 169.8046875 C-147.65112305 169.71300293 -148.64208984 169.62131836 -149.66308594 169.52685547 C-221.50150469 163.24816492 -293.46072286 168.9708153 -363.66015625 184.8046875 C-368.48522822 175.82007073 -370.73511002 167.15214692 -372.28515625 157.1171875 C-372.40834229 156.32860352 -372.53152832 155.54001953 -372.65844727 154.72753906 C-374.51869903 141.90761468 -374.92489517 128.93128817 -374.97265625 115.9921875 C-374.97560699 115.2744516 -374.97855774 114.5567157 -374.9815979 113.81723022 C-374.99215282 102.32292168 -374.22864125 91.02572114 -372.84765625 79.6171875 C-372.76488434 78.92692474 -372.68211243 78.23666199 -372.59683228 77.52548218 C-369.62745484 53.3052397 -365.51487204 23.21355181 -345.94921875 6.328125 C-336.7754644 -0.77011932 -326.5664163 -1.37570752 -315.34765625 -1.3828125 C-314.37248047 -1.39505859 -313.39730469 -1.40730469 -312.39257812 -1.41992188 C-305.83487308 -1.43258969 -299.48187684 -0.87724066 -292.97967529 -0.04695129 C-281.39678418 1.39034234 -269.73510483 2.08108284 -258.09765625 2.9296875 C-255.62171996 3.11294603 -253.14580827 3.29653736 -250.66992188 3.48046875 C-244.66694464 3.92570754 -238.66367797 4.36685478 -232.66015625 4.8046875 C-232.33399256 7.18724815 -232.01010803 9.57008248 -231.6875 11.953125 C-231.59577515 12.62142334 -231.50405029 13.28972168 -231.4095459 13.97827148 C-230.89515802 17.79244009 -230.48280581 21.59003087 -230.22265625 25.4296875 C-229.69147758 31.71064233 -228.21583242 37.70852108 -226.66015625 43.8046875 C-226.42167969 44.76761719 -226.18320313 45.73054687 -225.9375 46.72265625 C-224.50197964 52.28431708 -222.68652475 57.52573501 -220.4296875 62.80859375 C-219.66015625 64.8046875 -219.66015625 64.8046875 -219.66015625 66.8046875 C-220.25182587 66.81055374 -220.84349548 66.81641998 -221.45309448 66.82246399 C-227.6509999 66.88675237 -233.84840297 66.97126049 -240.04589844 67.06713867 C-242.35409899 67.10024678 -244.66237775 67.12832194 -246.97070312 67.15112305 C-250.30242014 67.18492933 -253.63342943 67.23725817 -256.96484375 67.29296875 C-257.98504608 67.29935867 -259.00524841 67.3057486 -260.05636597 67.31233215 C-267.92493728 67.47122011 -275.52458116 68.18104304 -281.72265625 73.3671875 C-284.38810067 76.72048855 -284.7898128 78.36504983 -284.8371582 82.57055664 C-284.84999344 83.5624147 -284.86282867 84.55427277 -284.87605286 85.57618713 C-284.88343979 86.65319382 -284.89082672 87.7302005 -284.8984375 88.83984375 C-284.91054512 90.50157875 -284.91054512 90.50157875 -284.92289734 92.19688416 C-284.93675026 94.54815094 -284.94746698 96.89943795 -284.95532227 99.25073242 C-284.97247014 102.82835771 -285.01633902 106.40504341 -285.06054688 109.98242188 C-285.07067944 112.26822238 -285.07919377 114.55403074 -285.0859375 116.83984375 C-285.11219963 118.43409935 -285.11219963 118.43409935 -285.13899231 120.06056213 C-285.1201074 126.60556386 -284.41507024 132.27711216 -280.66015625 137.8046875 C-273.22054833 144.60227898 -260.24543974 144.55774298 -250.7109375 145.46484375 C-249.40691483 145.59077408 -248.10289215 145.71670441 -246.75935364 145.84645081 C-233.12915936 147.10224381 -219.52865751 147.30874022 -205.84765625 147.2421875 C-204.56318604 147.24014313 -203.27871582 147.23809875 -201.95532227 147.23599243 C-182.13902247 147.18540344 -162.43149087 146.40236667 -142.66015625 144.9921875 C-140.90776138 144.86830154 -140.90776138 144.86830154 -139.1199646 144.74191284 C-101.79040961 143.94264565 -101.79040961 143.94264565 -68.78515625 129.9921875 C-65.23453654 123.08820474 -65.34501667 116.2885567 -65.41015625 108.6796875 C-65.41619873 107.56327881 -65.42224121 106.44687012 -65.4284668 105.29663086 C-65.52082577 97.62188047 -65.88842893 90.29876394 -67.66015625 82.8046875 C-67.87800781 81.87527344 -68.09585937 80.94585938 -68.3203125 79.98828125 C-69.59877212 75.1888181 -70.81335598 71.14532984 -74.66015625 67.8046875 C-82.21913948 63.98659071 -90.28399759 64.41534815 -98.5390625 64.51171875 C-99.96109059 64.51732514 -101.38312453 64.5215903 -102.80516052 64.52458191 C-106.51897633 64.53594881 -110.23243119 64.56534378 -113.94610596 64.59869385 C-117.74722412 64.62957239 -121.54840151 64.64312495 -125.34960938 64.65820312 C-132.78662156 64.69022296 -140.22333802 64.74131818 -147.66015625 64.8046875 C-147.02101664 63.52354956 -146.38154923 62.24257515 -145.74194336 60.96166992 C-145.38587509 60.24830978 -145.02980682 59.53494965 -144.66294861 58.79997253 C-143.90476962 57.29140182 -143.13167331 55.79031577 -142.3515625 54.29296875 C-134.1413878 38.46920645 -130.76195606 22.18368081 -127.66015625 4.8046875 C-126.45294922 4.67416992 -125.24574219 4.54365234 -124.00195312 4.40917969 C-89.14040212 0.940257 -89.14040212 0.940257 -54.7109375 -5.33203125 C-35.88311939 -9.73119601 -16.94231485 -11.03859088 0 0 Z " fill="#40FE40" transform="translate(468.66015625,483.1953125)"/>
<path d="M0 0 C0.76828125 0.30550781 1.5365625 0.61101562 2.328125 0.92578125 C20.09112505 8.80453127 34.06659834 26.15103886 41 44 C43.10196416 51.05470465 43.2926359 57.89633484 43.265625 65.21484375 C43.26753845 66.38342422 43.2694519 67.5520047 43.27142334 68.7559967 C43.2727802 71.22950455 43.26911872 73.70301964 43.26074219 76.17651367 C43.2502008 79.86719879 43.26056854 83.55737845 43.2734375 87.24804688 C43.28868113 109.29172782 42.17331336 131.10763841 38.1875 152.8125 C37.91827237 154.31817815 37.64914997 155.82387512 37.38012695 157.32958984 C33.09137384 181.06879175 26.95953874 203.66253414 16.75 225.625 C16.44537842 226.28081055 16.14075684 226.93662109 15.8269043 227.61230469 C14.93822648 229.4428803 13.98366526 231.21895479 13 233 C12.68353516 233.65194336 12.36707031 234.30388672 12.04101562 234.97558594 C10.85167785 237.07774579 9.84052418 238.42769136 8 240 C5.67340088 240.50282288 5.67340088 240.50282288 2.96972656 240.66040039 C1.98760193 240.723927 1.00547729 240.78745361 -0.00640869 240.85290527 C-0.99429382 240.90144653 -1.98217896 240.94998779 -3 241 C-4.30031158 241.07667908 -4.30031158 241.07667908 -5.62689209 241.15490723 C-8.24028355 241.30105392 -10.85374089 241.42175809 -13.46875 241.53515625 C-14.42914185 241.57813339 -15.38953369 241.62111053 -16.37902832 241.66539001 C-18.39911163 241.75489606 -20.41925479 241.84306052 -22.43945312 241.92993164 C-25.46508572 242.06098768 -28.49033443 242.19919041 -31.515625 242.33789062 C-43.68586329 242.87816867 -55.81827482 243.12056693 -68 243 C-68.15216795 236.40925173 -67.61277171 230.25575031 -66.57421875 223.75390625 C-66.42682251 222.79397263 -66.27942627 221.834039 -66.12756348 220.84501648 C-65.81404681 218.803792 -65.49789534 216.7629707 -65.17929077 214.72253418 C-64.35053678 209.39732048 -63.55054113 204.06779762 -62.75 198.73828125 C-62.59371628 197.69916595 -62.43743256 196.66005066 -62.27641296 195.58944702 C-57.27156833 162.18686845 -56.02481861 128.7132405 -55 95 C-56.2942691 95.00999275 -56.2942691 95.00999275 -57.61468506 95.02018738 C-65.79309295 95.08059263 -73.97142463 95.12612277 -82.15000534 95.15543652 C-86.35351927 95.17101422 -90.55684706 95.1921059 -94.76025391 95.22631836 C-98.82570444 95.25919645 -102.89097725 95.27691219 -106.9565506 95.28463173 C-108.49850507 95.29012469 -110.04045113 95.30084923 -111.5823288 95.31719017 C-133.29448284 95.53789914 -149.42614575 88.98898441 -165.17578125 73.91796875 C-179.53125487 58.89350218 -184.5757648 39.99876504 -184.28515625 19.671875 C-184.03351387 13.34414408 -182.62547866 8.01540123 -178.421875 3.1875 C-171.71420745 -0.10142086 -162.02874571 4.16520515 -155.25195312 6.09570312 C-140.10962152 10.13932496 -124.35085442 10.33175775 -108.78125 10.37109375 C-106.90279076 10.38009301 -105.02433211 10.38921525 -103.14587402 10.39845276 C-99.24664587 10.41477406 -95.34750197 10.42261384 -91.44824219 10.42553711 C-86.47439269 10.43095881 -81.50134056 10.46886618 -76.52771759 10.51428127 C-72.66362631 10.54410805 -68.79972798 10.5512616 -64.93553162 10.55226326 C-63.1016416 10.55644039 -61.26774966 10.56877263 -59.43397522 10.58978081 C-45.48927729 10.78440377 -45.48927729 10.78440377 -33 5 C-32.00226563 4.34515625 -31.00453125 3.6903125 -29.9765625 3.015625 C-29.20054687 2.43296875 -28.42453125 1.8503125 -27.625 1.25 C-19.12137015 -5.12079761 -9.43504799 -3.98549441 0 0 Z " fill="#FE4D73" transform="translate(399,81)"/>
<path d="M0 0 C0.7251178 0.00478867 1.4502356 0.00957733 2.19732666 0.01451111 C4.57931653 0.03208601 6.96111757 0.05791386 9.34301758 0.08496094 C11.03330908 0.10171033 12.72360146 0.11837115 14.41389465 0.13494873 C17.96365023 0.17135868 21.51331698 0.21252123 25.06298828 0.25634766 C28.64174116 0.29983414 32.22039552 0.33466631 35.79931641 0.36083984 C111.03688907 0.91829576 111.03688907 0.91829576 139.17895508 17.79589844 C142.08762792 20.91348149 142.1044468 23.813405 142.30004883 27.88183594 C143.88532364 46.59772299 151.92929573 62.0407959 165.30004883 75.06933594 C165.96004883 75.39933594 166.62004883 75.72933594 167.30004883 76.06933594 C167.78662109 78.86987305 167.78662109 78.86987305 168.11645508 82.59667969 C168.17784164 83.2596254 168.23922821 83.92257111 168.30247498 84.60560608 C168.49800817 86.73865708 168.68050712 88.87259526 168.86254883 91.00683594 C168.98863024 92.41121135 169.11557356 93.81550966 169.2434082 95.21972656 C169.48198335 97.84750325 169.71451767 100.47553639 169.94287109 103.10424805 C170.12834821 105.16325957 170.31802703 107.22236184 170.55924988 109.27558899 C171.39978963 116.62276047 171.46160513 123.91783227 171.46801758 131.30761719 C171.47124406 132.67791272 171.47460908 134.04820793 171.47810364 135.41850281 C171.48405917 138.28364862 171.48594758 141.14876446 171.48535156 144.01391602 C171.48527081 146.90623293 171.49213707 149.79838977 171.50585938 152.69067383 C171.6451379 182.488751 170.61485642 211.13844848 159.30004883 239.06933594 C158.94942383 240.06835938 158.59879883 241.06738281 158.23754883 242.09667969 C155.39988399 244.98583441 152.86825401 244.74234204 148.92089844 244.86450195 C147.37607788 244.87308228 147.37607788 244.87308228 145.80004883 244.88183594 C144.72956299 244.90624756 143.65907715 244.93065918 142.55615234 244.95581055 C138.8040122 245.02786051 135.05272823 245.05396915 131.30004883 245.06933594 C130.55599792 245.07344482 129.81194702 245.07755371 129.04534912 245.08178711 C118.12988866 245.14185714 107.21548027 245.13084465 96.30004883 245.06933594 C96.28546631 243.88049805 96.27088379 242.69166016 96.25585938 241.46679688 C95.90154922 214.23845336 95.13312913 187.04227304 93.95950699 159.83815002 C93.86291291 157.57785547 93.76925978 155.31745603 93.67636108 153.05700684 C93.52771406 149.45566814 93.37063815 145.85478921 93.2070961 142.25409698 C93.11961788 140.2963682 93.03891448 138.3383403 92.95846558 136.38031006 C92.44339525 125.50209068 91.85525243 114.19391583 85.30004883 105.06933594 C75.35386669 96.49226389 61.95769272 95.72558906 49.42504883 95.88183594 C47.9168457 95.88280273 47.9168457 95.88280273 46.37817383 95.88378906 C41.84151616 95.91086461 37.74873255 96.17839172 33.30004883 97.06933594 C15.20913609 98.28942075 -3.0684617 98.18981071 -17.69995117 86.06933594 C-29.57999769 74.73134477 -31.60685398 57.09100234 -32.00073242 41.49121094 C-32.01508436 38.93395656 -32.01894834 36.37662233 -32.01245117 33.81933594 C-32.02856445 32.53542969 -32.04467773 31.25152344 -32.0612793 29.92871094 C-32.06567184 21.35445795 -31.78311297 13.20958179 -26.51245117 6.13183594 C-18.62319076 0.3463783 -9.51646058 -0.08017343 0 0 Z " fill="#40FE40" transform="translate(73.699951171875,83.9306640625)"/>
<path d="M0 0 C34.65 0 69.3 0 105 0 C102.66567077 19.84179845 102.66567077 19.84179845 100.8125 26.0625 C100.60109375 26.79581543 100.3896875 27.52913086 100.171875 28.28466797 C97.34461072 37.68936063 93.64188668 46.91286351 88.38476562 55.22802734 C87.71362732 56.29239517 87.71362732 56.29239517 87.02893066 57.37826538 C86.68938354 57.91343781 86.34983643 58.44861023 86 59 C87.15392494 58.99000725 87.15392494 58.99000725 88.3311615 58.97981262 C95.61283021 58.91947704 102.89437617 58.8739123 110.17623043 58.84456348 C113.91910991 58.82896726 117.66178127 58.80784102 121.40454102 58.77368164 C125.02259402 58.74087046 128.64044797 58.72310164 132.25863838 58.71536827 C133.63281954 58.70986349 135.00699091 58.69911487 136.38108635 58.68280983 C153.83642369 58.48409112 153.83642369 58.48409112 160.8125 64.375 C168.65108303 75.27849612 168.18824701 90.77191172 168.25 103.5625 C168.2809375 105.1702832 168.2809375 105.1702832 168.3125 106.81054688 C168.35217951 114.92004749 168.01961673 121.79920627 162.265625 127.8984375 C146.19253331 138.24212569 122.5563211 138.43683628 104.12304688 139.88037109 C101.00323062 140.12474694 97.88442735 140.37975528 94.765625 140.63671875 C88.84574711 141.11948123 82.92380781 141.56836644 77 142 C76.23490112 142.05728271 75.46980225 142.11456543 74.68151855 142.17358398 C60.87963435 143.18127323 47.06132799 143.21982375 33.22802734 143.24023438 C29.29893321 143.24987987 25.37037716 143.28097761 21.44140625 143.3125 C8.15169699 143.36862735 -4.98149805 142.96294757 -18.203125 141.671875 C-20.01728912 141.49679413 -20.01728912 141.49679413 -21.86810303 141.31817627 C-44.00981355 138.92584642 -44.00981355 138.92584642 -49 133 C-53.02595533 126.16656587 -53.59143355 119.98246351 -53.53125 112.17578125 C-53.5350769 111.07074753 -53.53890381 109.96571381 -53.54284668 108.82719421 C-53.54555471 106.50514813 -53.53827177 104.18307096 -53.52148438 101.86108398 C-53.49999878 98.31229784 -53.52135696 94.765522 -53.546875 91.21679688 C-53.54423273 88.95312055 -53.53910984 86.68944547 -53.53125 84.42578125 C-53.53934692 83.36941971 -53.54744385 82.31305817 -53.55578613 81.22468567 C-53.4789069 75.17882804 -53.04629251 71.59894071 -49 67 C-47.03515625 65.57421875 -47.03515625 65.57421875 -45.0625 64.6875 C-44.08990234 64.22923828 -44.08990234 64.22923828 -43.09765625 63.76171875 C-39.06677938 62.29799251 -35.20306649 61.87544427 -30.93432617 61.88647461 C-29.95368698 61.88655014 -28.97304779 61.88662567 -27.96269226 61.88670349 C-26.39367912 61.89444542 -26.39367912 61.89444542 -24.79296875 61.90234375 C-23.71243729 61.9037587 -22.63190582 61.90517365 -21.51863098 61.90663147 C-18.07489224 61.9122192 -14.63121902 61.9247695 -11.1875 61.9375 C-8.84961032 61.94251658 -6.51171961 61.94707921 -4.17382812 61.95117188 C1.55080353 61.96218462 7.27539708 61.97891059 13 62 C12.59370361 61.1140918 12.18740723 60.22818359 11.76879883 59.31542969 C8.50917733 52.00345144 5.99263774 45.19216518 4.6875 37.25 C4.38103577 35.52566183 4.07254599 33.80168204 3.76171875 32.078125 C3.63756592 31.33981445 3.51341309 30.60150391 3.38549805 29.84082031 C3.06379511 27.91560058 3.06379511 27.91560058 2 26 C1.01 13.13 1.01 13.13 0 0 Z " fill="#FEFFFE" transform="translate(236,488)"/>
<path d="M0 0 C0.33 0 0.66 0 1 0 C1 113.52 1 227.04 1 344 C-83.15 344 -167.3 344 -254 344 C-254 343.67 -254 343.34 -254 343 C-253.0205542 342.9498877 -252.0411084 342.89977539 -251.03198242 342.84814453 C-230.67058716 341.80077053 -210.31557836 340.74673685 -190 339 C-189.11654907 338.92436829 -188.23309814 338.84873657 -187.32287598 338.77081299 C-102.60081356 336.70820554 -102.60081356 336.70820554 -30 301 C-19.95996353 287.8235175 -13.16269416 272.35954799 -8.0625 256.6875 C-7.63880127 255.40069336 -7.63880127 255.40069336 -7.20654297 254.08789062 C-3.05918954 240.67192701 -2.65727244 227.22009129 -2.75 213.3125 C-2.75343414 212.47206146 -2.75686829 211.63162292 -2.76040649 210.76571655 C-2.88384017 185.03423556 -3.7575072 154.6104236 -22.8515625 134.89453125 C-34.20365831 124.88404676 -47.86498902 122.03447004 -62.61328125 122.546875 C-69.03050626 122.96036497 -75.13413041 124.36407164 -81.37207031 125.86230469 C-105.00367327 131.43777666 -130.71768979 135.10617469 -155 135 C-154.98952637 133.93789307 -154.97905273 132.87578613 -154.96826172 131.78149414 C-154.93143035 127.75386064 -154.90887569 123.72624118 -154.89013672 119.69848633 C-154.8802202 117.97157266 -154.86668287 116.24467511 -154.84912109 114.51782227 C-154.69381933 98.82777654 -155.84120663 83.870797 -159.51171875 68.5625 C-159.67285156 67.716875 -159.83398438 66.87125 -160 66 C-158.20461116 64.20461116 -155.47061308 64.46350772 -153.03515625 64.16796875 C-151.7733252 64.01150879 -150.51149414 63.85504883 -149.21142578 63.69384766 C-148.19776947 63.57049042 -148.19776947 63.57049042 -147.16363525 63.44464111 C-143.60605647 63.00925754 -140.05111747 62.55336425 -136.49609375 62.09765625 C-135.77518555 62.00530701 -135.05427734 61.91295776 -134.31152344 61.81781006 C-91.31872176 56.28846615 -38.74028912 48.29075398 -8.7890625 13.34765625 C-6.2754013 10.04916197 -4.17090347 6.57423828 -2.12890625 2.96875 C-1 1 -1 1 0 0 Z " fill="#FEFEFE" transform="translate(496,353)"/>
<path d="M0 0 C0.66644531 0.44730469 1.33289063 0.89460937 2.01953125 1.35546875 C17.45442569 11.47989601 30.33700173 14.27664098 48.5078125 14.4140625 C50.08536759 14.43280716 51.662913 14.45238293 53.240448 14.4727478 C57.36008964 14.52372718 61.47976366 14.56353413 65.59954834 14.60089111 C69.81644475 14.64114715 74.03321044 14.6921401 78.25 14.7421875 C86.49991017 14.838541 94.7498859 14.9230734 103 15 C103.15677671 48.86598104 103.15677671 48.86598104 102.25 63.3125 C102.20709839 64.02192749 102.16419678 64.73135498 102.11999512 65.46228027 C100.56343209 90.85275826 97.01039746 115.96323047 93.01855469 141.07128906 C92.89238266 141.8667363 92.76621063 142.66218353 92.63621521 143.48173523 C92.40159574 144.95555869 92.16501744 146.4290725 91.92591858 147.9021759 C91.12455671 152.91996876 90.52382484 157.94596943 90 163 C90.78989822 162.96241577 91.57979645 162.92483154 92.39363098 162.8861084 C99.88060363 162.53033341 107.3676888 162.17707046 114.85490894 161.82654572 C118.70306172 161.64630248 122.55116572 161.46512824 126.39916992 161.28173828 C130.12084906 161.10440458 133.84264083 160.92963141 137.56451988 160.75654602 C138.97613405 160.69046503 140.38770717 160.62350062 141.79923439 160.55558777 C149.87281862 160.16778924 157.91664289 159.9001965 166 160 C162.22216819 167.49607967 157.45676178 173.63992292 152 180 C151.360625 180.78632813 150.72125 181.57265625 150.0625 182.3828125 C142.16949216 191.82153438 130.4854077 201.71362372 118 204 C103.6470407 205.14561819 103.6470407 205.14561819 98.8125 202 C93.30325359 196.99929941 90.32202341 188.86323675 89.83818054 181.55618286 C89.80401604 178.88898625 89.82507928 176.2294184 89.875 173.5625 C89.88402344 172.64017578 89.89304687 171.71785156 89.90234375 170.76757812 C89.9257234 168.51144191 89.95849084 166.25586316 90 164 C89.08863281 164.03758423 88.17726563 164.07516846 87.23828125 164.1138916 C78.5339917 164.47196918 69.82952182 164.82523394 61.12483215 165.17345428 C56.65261217 165.35252022 52.18047528 165.5332722 47.70849609 165.71826172 C28.13021898 166.52694703 8.59963574 167.26889744 -11 167 C-10.78340225 166.42972076 -10.5668045 165.85944153 -10.34364319 165.2718811 C-4.8611818 150.88474201 -4.8611818 150.88474201 -1 136 C-0.87141602 135.36916504 -0.74283203 134.73833008 -0.61035156 134.08837891 C2.37452282 119.20965801 3.15445017 104.53005042 3.16796875 89.37890625 C3.17120163 88.02294382 3.17456701 86.6669817 3.17805481 85.3110199 C3.18398117 82.48834428 3.18590169 79.66569896 3.18530273 76.84301758 C3.18522188 74.00538707 3.19211107 71.1679194 3.20581055 68.33032227 C3.29843333 48.84682873 3.35603579 29.25627855 0 10 C-0.06305204 8.20932194 -0.08671114 6.41662421 -0.0625 4.625 C-0.05347656 3.75101563 -0.04445312 2.87703125 -0.03515625 1.9765625 C-0.02355469 1.32429687 -0.01195312 0.67203125 0 0 Z " fill="#FEFEFE" transform="translate(241,161)"/>
<path d="M0 0 C2.75711829 0.45811138 5.52080601 0.86465001 8.28515625 1.27685547 C15.71976657 2.41462001 23.09954231 3.80455126 30.48046875 5.24560547 C31.49213104 5.44252991 31.49213104 5.44252991 32.52423096 5.64343262 C57.1007494 10.43860224 57.1007494 10.43860224 63.23046875 12.37060547 C63.56046875 13.03060547 63.89046875 13.69060547 64.23046875 14.37060547 C45.08893625 21.35197158 25.50393862 24.25802651 5.35546875 26.80810547 C4.19949188 26.95645844 3.04351501 27.1048114 1.85250854 27.25765991 C-34.52794352 31.90953366 -71.12640829 35.59421958 -107.76953125 37.37060547 C-108.55221375 37.41223816 -109.33489624 37.45387085 -110.14129639 37.49676514 C-127.34648727 38.40336421 -144.53049816 38.52735647 -161.75390625 38.50097656 C-165.53616982 38.49523903 -169.31836298 38.49860315 -173.10062408 38.50454903 C-176.07963571 38.50820284 -179.05863126 38.5069949 -182.03764343 38.50442123 C-183.431127 38.50376738 -184.82461217 38.50452444 -186.21809387 38.50690079 C-212.08054004 38.54141517 -242.05154498 37.72128266 -262.109375 19.10498047 C-265.22759185 15.84736099 -267.76953125 13.05688295 -267.76953125 8.37060547 C-261.19225566 6.91429569 -254.60898985 5.48774392 -248.02197266 4.07617188 C-245.07256068 3.43634297 -242.13003881 2.77162596 -239.1875 2.10107422 C-218.6243111 -2.44494603 -197.69697754 -4.52479899 -176.76953125 -6.62939453 C-176.08109131 -6.70049438 -175.39265137 -6.77159424 -174.68334961 -6.84484863 C-117.28476488 -12.755804 -56.79994223 -9.83835978 0 0 Z " fill="#FECC01" transform="translate(373.76953125,658.62939453125)"/>
<path d="M0 0 C34.65 0 69.3 0 105 0 C102.66567077 19.84179845 102.66567077 19.84179845 100.8125 26.0625 C100.60109375 26.79581543 100.3896875 27.52913086 100.171875 28.28466797 C96.91266928 39.12618298 92.42720685 49.65133549 86 59 C90.29 59.33 94.58 59.66 99 60 C99 60.33 99 60.66 99 61 C91.77371564 61.13329129 84.54738592 61.26379632 77.32099438 61.39115143 C73.96209905 61.45042619 70.60323197 61.51078025 67.24438477 61.57275391 C49.16005738 61.9056985 31.08734418 62.07235105 13 62 C7.9163164 51.45982283 5.32388198 41.36797827 3.38549805 29.84082031 C3.06379511 27.91560058 3.06379511 27.91560058 2 26 C1.34 17.42 0.68 8.84 0 0 Z " fill="#7FFEFE" transform="translate(236,488)"/>
<path d="M0 0 C2.04313616 -0.00972343 4.08527217 -0.0408099 6.12817383 -0.07226562 C20.53946595 -0.12925541 20.53946595 -0.12925541 26.0168457 5.03320312 C28.70036857 10.42889857 28.12001994 17.57018239 26.56079102 23.26123047 C24.65100506 28.87004156 22.2183647 34.24300155 19.3527832 39.42773438 C17.97756137 42.0390954 17.97756137 42.0390954 18.11450195 44.27929688 C19.601743 47.19568361 21.83288931 49.31640923 24.11450195 51.61523438 C28.29731898 56.01101737 31.97300983 60.53892868 35.30200195 65.61523438 C35.88111328 66.47060791 35.88111328 66.47060791 36.47192383 67.34326172 C38.86410264 71.11105349 39.6619024 73.80504665 39.11450195 78.24023438 C36.82724819 82.56060259 34.64365061 85.29917066 30.11450195 87.24023438 C26.37103661 87.79777177 24.55809203 87.46674846 21.17700195 85.74023438 C18.02810461 83.16970593 15.59511315 80.44795981 12.9934082 77.34570312 C9.99072397 73.98094885 6.57729923 71.11840354 3.11450195 68.24023438 C0.36108587 69.52676503 -1.89554907 70.96661337 -4.26049805 72.86523438 C-6.69528067 74.60955625 -7.93432237 75.25019852 -10.94799805 75.86523438 C-14.88978775 75.02655572 -17.61867693 73.56406182 -19.88549805 70.24023438 C-20.88411601 66.23470029 -20.60589631 62.61989281 -18.69165039 58.95385742 C-17.01276676 56.56721925 -15.23546497 54.30922045 -13.38549805 52.05273438 C-12.09470115 50.39565449 -10.80955243 48.73415977 -9.5300293 47.06835938 C-8.90435059 46.25560547 -8.27867188 45.44285156 -7.6340332 44.60546875 C-3.15161144 38.54212024 1.43146743 31.64024329 3.11450195 24.24023438 C1.87361816 24.2795105 1.87361816 24.2795105 0.60766602 24.31958008 C-3.13986223 24.42350269 -6.88708754 24.48854926 -10.63549805 24.55273438 C-11.93745117 24.59462891 -13.2394043 24.63652344 -14.58081055 24.6796875 C-15.83120117 24.69580078 -17.0815918 24.71191406 -18.36987305 24.72851562 C-19.52197266 24.75469971 -20.67407227 24.78088379 -21.86108398 24.80786133 C-24.88549805 24.24023438 -24.88549805 24.24023438 -27.25732422 21.86376953 C-29.84716911 17.69065915 -29.76788159 13.99445605 -28.88549805 9.24023438 C-27.17400524 5.81023445 -24.83737423 3.75278309 -21.44799805 1.92773438 C-14.33200771 0.01856624 -7.32334573 0.0210769 0 0 Z " fill="#9A74FF" transform="translate(40.885498046875,589.759765625)"/>
<path d="M0 0 C5.92275355 0.39088474 10.51359664 3.12021774 15.68359375 5.8203125 C20.24491393 7.44283158 23.73568383 6.98627201 28.15234375 5.0625 C28.74144531 4.711875 29.33054687 4.36125 29.9375 4 C34.81553022 1.41918168 39.25307785 0.16175585 44.7265625 1.83203125 C47 4 47 4 47.33032227 6.1652832 C47.35740091 8.9906635 47.2805326 11.8010922 47.1875 14.625 C47.12819803 22.34673735 47.12819803 22.34673735 50.09765625 29.27734375 C52.62971463 31.45886681 55.15057988 33.26040039 58 35 C62.86571695 38.89887903 62.86571695 38.89887903 63.3125 42.5625 C61.22791461 46.43387287 58.08636568 47.64655404 54 49 C52.12817614 49.25380662 50.25277174 49.48227904 48.375 49.6875 C45.12781657 50.19361273 43.50819922 50.4874479 41.17578125 52.83984375 C39.65737552 55.17125413 38.33167719 57.55794474 37 60 C35.94397837 61.49878733 34.86155248 62.97942037 33.75 64.4375 C33.27046875 65.07558594 32.7909375 65.71367188 32.296875 66.37109375 C30.35495724 68.81018925 29.39701315 69.8984385 26.3125 70.6875 C20.94411521 69.57330693 18.91271229 65.40896861 16 61 C15.51789063 60.17628906 15.03578125 59.35257813 14.5390625 58.50390625 C12.10841509 54.41477843 10.4512118 51.71176587 5.8125 50.1875 C4.21019456 49.78419863 2.6058393 49.38899213 1 49 C-0.98765723 48.33744759 -2.96696685 47.649368 -4.9375 46.9375 C-5.85402344 46.61652344 -6.77054687 46.29554687 -7.71484375 45.96484375 C-10 45 -10 45 -12 43 C-12.46548091 39.36216549 -12.33891935 37.54704215 -10.390625 34.40234375 C-9.33101563 33.18224609 -9.33101563 33.18224609 -8.25 31.9375 C-7.55390625 31.12152344 -6.8578125 30.30554688 -6.140625 29.46484375 C-4.6745977 27.77677217 -3.20157724 26.09475567 -1.72265625 24.41796875 C0.37659098 22.00143133 0.37659098 22.00143133 -0.1875 18.375 C-0.94039712 15.0364734 -0.94039712 15.0364734 -2 12 C-2.11740122 10.315429 -2.17506545 8.62611123 -2.1875 6.9375 C-2.20167969 6.05964844 -2.21585937 5.18179687 -2.23046875 4.27734375 C-2 2 -2 2 0 0 Z " fill="#FFCC02" transform="translate(418,24)"/>
<path d="M0 0 C2.89516572 2.01402833 4.64088282 3.50560914 5.484375 7.015625 C5.83901767 12.65050302 4.1386967 16.26044385 0.99609375 20.859375 C-0.33307749 23.71579007 -0.0477336 25.05703274 1 28 C6.39351137 34.73504466 14.4718159 38.88897662 21.83984375 43.1171875 C25 45 25 45 27 47 C27.44298974 51.50372904 27.64736582 53.87955915 25.375 57.8125 C20.52028006 62.28395257 16.31182085 63.49501528 9.85742188 63.41674805 C4.36461434 62.6156354 -0.17834209 59.724779 -4.9375 57 C-6.96465926 55.86998279 -8.99448796 54.74473696 -11.02734375 53.625 C-11.91156006 53.12226562 -12.79577637 52.61953125 -13.70678711 52.1015625 C-16.02668783 50.78350344 -16.02668783 50.78350344 -19 51 C-20.47877519 52.63690396 -20.47877519 52.63690396 -21.8125 54.75 C-26.11901402 60.7494925 -31.81329976 64.33777001 -39 66 C-42.68545534 66.27591644 -46.31720898 66.33656438 -50 66 C-51 65 -51 65 -51.29296875 61.890625 C-50.95764941 57.4375842 -49.5615544 54.49236916 -47.3125 50.75 C-46.91603271 50.0696167 -46.51956543 49.3892334 -46.11108398 48.68823242 C-38.06929233 35.14343737 -28.83432916 22.29291145 -19 10 C-18.43796875 9.27167969 -17.8759375 8.54335938 -17.296875 7.79296875 C-12.84035881 2.22232351 -7.5388022 -2.78607907 0 0 Z " fill="#FF4F74" transform="translate(52,519)"/>
<path d="M0 0 C-0.91354344 1.43418939 -1.8358577 2.86279389 -2.76171875 4.2890625 C-3.27436279 5.08521973 -3.78700684 5.88137695 -4.31518555 6.70166016 C-9.62825583 13.94948563 -17.21337533 16.82124312 -25.7421875 18.55859375 C-29.6812401 19.09230232 -33.52945788 19.22208758 -37.5 19.25 C-38.23347656 19.270625 -38.96695313 19.29125 -39.72265625 19.3125 C-44.5634634 19.34713905 -47.79801604 18.64799581 -52 16 C-56.56011294 11.2326092 -59 7.63752531 -59 1 C-39.32644064 0.33710383 -19.68751623 -0.17798172 0 0 Z " fill="#7FFDFD" transform="translate(230,328)"/>
<path d="M0 0 C4.64505077 3.83721586 8.5113187 7.5772133 9.11328125 13.86328125 C9.27059634 19.84953439 9.20958907 23.80610882 4.875 28.375 C0.46498879 31.22853667 -5.05354501 31.00024787 -10.125 30.375 C-15.48720271 28.67926068 -19.00275783 26.12080809 -22.125 21.375 C-24.1327121 17.35957581 -23.73456195 12.72985122 -23.125 8.375 C-20.98792637 3.62001118 -18.46007372 0.95757762 -13.6875 -1.125 C-4.61277896 -2.39864506 -4.61277896 -2.39864506 0 0 Z " fill="#43FF43" transform="translate(47.125,476.625)"/>
<path d="M0 0 C15.00695508 11.6380468 21.8100225 30.26161129 24.53515625 48.6015625 C24.76184976 51.072841 24.93990336 53.51964781 25 56 C10.27373138 44.72030489 3.25343581 28.77833778 0 11 C-0.2626817 7.29743886 -0.28219852 3.69993611 0 0 Z " fill="#FCCB05" transform="translate(215,104)"/>
<path d="M0 0 C2.33143618 3.64286904 2.54126778 6.74718176 2 11 C-1.26365018 13.87969133 -4.69940021 14.71329335 -9 15 C-11 13 -11 13 -11.1953125 10.3984375 C-11.17210937 9.40070312 -11.14890625 8.40296875 -11.125 7.375 C-11.10695313 6.37210938 -11.08890625 5.36921875 -11.0703125 4.3359375 C-11.04710937 3.56507812 -11.02390625 2.79421875 -11 2 C-7.20960634 -0.12999997 -4.34263862 -0.16702456 0 0 Z " fill="#FFCD09" transform="translate(492,35)"/>
<path d="M0 0 C3.0625 0.25 3.0625 0.25 6.0625 2.25 C6.42578125 5 6.42578125 5 6.375 8.25 C6.37113281 9.3225 6.36726563 10.395 6.36328125 11.5 C6.0625 14.25 6.0625 14.25 4.0625 16.25 C1.34795044 16.57752234 -1.18980759 16.3808425 -3.9375 16.25 C-5.80993981 14.37756019 -5.11130392 11.31340482 -5.125 8.8125 C-5.13917969 7.63816406 -5.15335937 6.46382813 -5.16796875 5.25390625 C-4.85394668 1.16097448 -4.096066 0.34860136 0 0 Z " fill="#FFCD09" transform="translate(439.9375,-0.25)"/>
<path d="M0 0 C3.17106425 1.94355551 4.73677135 4.76744704 5.9375 8.1875 C5.875 12 5.875 12 4.9375 15.1875 C1.70958445 17.3394437 0.65349191 17.38836443 -3.0625 17.1875 C-8.06326982 8.19057929 -8.06326982 8.19057929 -7.0625 4.1875 C-4.81230163 1.81229061 -3.32707524 0.30246139 0 0 Z " fill="#FFCD09" transform="translate(470.0625,83.8125)"/>
<path d="M0 0 C4.3890815 0.51035831 7.33708062 1.52214277 11 4 C10.25 11.625 10.25 11.625 8 15 C1.375 14.25 1.375 14.25 -2 12 C-2.42915004 7.45100954 -1.99170782 4.10789738 0 0 Z " fill="#FFCD07" transform="translate(398,34)"/>
</svg>
